#
# Wavefront OBJ file: D:\Source\ace4\Libraries\CAD\Robots\i4 650\i4 650 work envelope - 210mm quill.obj
#
# Converted by the PolyTrans geometry converter from Okino Computer Graphics, Inc.
# Date/time of export: 07/26/2021 14:20:08
#
# Bounding box of geometry = (-604.647,-648.761,-2.83582e-005) to (650,648.761,418.5).

mtllib i4 650 work envelope - 210mm quill.mtl

# Coordinates for object 'i4 650 work envelope - 210mm quill'
v  -601.008301 228.752899 208.499985 
v  -573.915955 305.156494 208.499985 
v  -233.071106 149.999985 208.500000 
v  164.013519 177.067520 208.499985 
v  531.947754 373.539246 208.499985 
v  212.479507 114.480530 208.500000 
v  596.609741 257.986023 208.499985 
v  238.089920 39.579330 208.500000 
v  -604.647156 147.769806 208.500000 
v  -233.071075 -150.000015 208.500000 
v  -573.915955 -305.156555 208.500015 
v  -601.008301 -228.752991 208.500015 
v  21.265686 -240.418579 208.500015 
v  -40.117001 -648.760864 208.500031 
v  -57.661354 -234.368301 208.500015 
v  -170.759735 -627.169128 208.500031 
v  -130.386002 -203.107910 208.500015 
v  -294.315948 -579.549927 208.500031 
v  -189.085495 -150.000000 208.500000 
v  -405.658081 -507.879395 208.500015 
v  -500.165436 -415.131958 208.500015 
v  164.013550 -177.067459 208.500015 
v  339.996094 -553.987915 208.500031 
v  97.905266 -220.608017 208.500015 
v  220.672287 -611.394958 208.500031 
v  92.190590 -643.429016 208.500031 
v  97.905220 220.608047 208.499985 
v  339.995972 553.988037 208.499969 
v  445.209991 473.590637 208.499985 
v  -294.316071 579.549927 208.499969 
v  -170.759857 627.169128 208.499969 
v  -57.661392 234.368301 208.499985 
v  -40.117115 648.760864 208.499969 
v  21.265644 240.418610 208.499985 
v  92.190483 643.429016 208.499969 
v  220.672165 611.394958 208.499969 
v  -604.647156 -147.769897 208.500000 
v  -584.516418 -69.244408 208.500000 
v  -383.069672 -0.000024 208.500000 
v  -542.365234 -0.000038 208.500000 
v  -584.516418 69.244316 208.500000 
v  212.479538 -114.480469 208.500000 
v  531.947876 -373.539124 208.500015 
v  445.210052 -473.590515 208.500015 
v  636.512512 131.726349 208.500000 
v  650.000000 0.000066 208.500000 
v  238.089920 -39.579269 208.500000 
v  636.512512 -131.726227 208.500000 
v  596.609741 -257.985901 208.500015 
v  -500.165497 415.131897 208.499985 
v  -405.658142 507.879333 208.499985 
v  -189.085526 150.000000 208.500000 
v  -130.386032 203.107910 208.499985 
v  -189.085495 -150.000000 418.500000 
v  -233.071075 -150.000000 418.500000 
v  -383.069672 -0.000015 418.500000 
v  -233.071106 150.000000 418.500000 
v  -189.085526 150.000000 418.500000 
v  -130.386032 203.107910 418.500000 
v  -57.661392 234.368317 418.500000 
v  21.265644 240.418610 418.500000 
v  97.905220 220.608063 418.500000 
v  164.013519 177.067520 418.500000 
v  212.479507 114.480537 418.500000 
v  238.089920 39.579338 418.500000 
v  238.089920 -39.579262 418.500000 
v  212.479538 -114.480461 418.500000 
v  164.013550 -177.067459 418.500000 
v  97.905266 -220.608002 418.500000 
v  21.265686 -240.418579 418.500000 
v  -57.661354 -234.368286 418.500000 
v  -130.386002 -203.107910 418.500000 
v  -573.915955 305.156494 418.500000 
v  -601.008301 228.752914 418.500000 
v  -604.647156 147.769821 418.500000 
v  -584.516418 69.244331 418.500000 
v  -542.365234 -0.000029 418.500000 
v  -584.516418 -69.244392 418.500000 
v  -604.647156 -147.769882 418.500000 
v  -601.008301 -228.752975 418.500000 
v  -573.915955 -305.156555 418.500000 
v  -500.165436 -415.131958 418.500031 
v  -405.658081 -507.879395 418.500031 
v  -294.315948 -579.549927 418.500031 
v  -170.759735 -627.169128 418.500031 
v  -40.117001 -648.760864 418.500031 
v  92.190590 -643.429016 418.500031 
v  220.672287 -611.394897 418.500031 
v  339.996094 -553.987915 418.500031 
v  445.210052 -473.590515 418.500031 
v  531.947876 -373.539124 418.500031 
v  596.609741 -257.985901 418.500000 
v  636.512512 -131.726212 418.500000 
v  650.000000 0.000075 418.500000 
v  636.512512 131.726364 418.500000 
v  596.609741 257.986023 418.500000 
v  531.947754 373.539246 418.499969 
v  445.209991 473.590637 418.499969 
v  339.995972 553.988037 418.499969 
v  220.672165 611.395020 418.499969 
v  92.190483 643.429016 418.499969 
v  -40.117115 648.760864 418.499969 
v  -170.759857 627.169128 418.499969 
v  -294.316071 579.549927 418.499969 
v  -405.658142 507.879333 418.499969 
v  -500.165497 415.131897 418.499969 
v  0.0 0.0 0.0 
# 107 vertices

# 0 texture vertices

vn  0.0 0.0 -1.0 
vn  0.475408 0.879766 0.0 
vn  0.237704 0.971338 0.0 
vn  0.0 1.0 0.0 
vn  0.707110 0.707103 0.0 
vn  0.707110 -0.707103 0.0 
vn  0.475408 -0.879765 0.0 
vn  0.237704 -0.971338 0.0 
vn  0.0 -1.0 0.0 
vn  0.585952 -0.810346 0.0 
vn  0.492833 -0.870124 0.0 
vn  0.292264 -0.956338 0.0 
vn  0.184813 -0.982774 0.0 
vn  -0.032861 -0.999460 0.0 
vn  -0.143086 -0.989710 0.0 
vn  -0.354452 -0.935074 0.0 
vn  -0.455594 -0.890188 0.0 
vn  -0.637916 -0.770106 0.0 
vn  -0.719096 -0.694911 0.0 
vn  -0.852761 -0.522301 0.0 
vn  -0.905247 -0.424886 0.0 
vn  -0.975879 -0.218314 0.0 
vn  -0.994025 -0.109157 0.0 
vn  -0.994025 0.109157 0.0 
vn  -0.975879 0.218313 0.0 
vn  -0.905247 0.424885 0.0 
vn  -0.852761 0.522301 0.0 
vn  -0.719096 0.694911 0.0 
vn  -0.637916 0.770106 0.0 
vn  -0.455594 0.890188 0.0 
vn  -0.354452 0.935074 0.0 
vn  -0.143086 0.989710 0.0 
vn  -0.032862 0.999460 0.0 
vn  0.184813 0.982774 0.0 
vn  0.292264 0.956338 0.0 
vn  0.492833 0.870124 0.0 
vn  0.585952 0.810346 0.0 
vn  -0.911496 0.411309 0.0 
vn  -0.873914 0.486081 0.0 
vn  -0.970749 0.240096 0.0 
vn  -0.989764 0.142712 0.0 
vn  -0.998575 -0.053369 0.0 
vn  -0.988370 -0.152065 0.0 
vn  -0.939629 -0.342196 0.0 
vn  -0.901091 -0.433630 0.0 
vn  -0.854185 -0.519969 0.0 
vn  -0.854185 0.519969 0.0 
vn  -0.901091 0.433629 0.0 
vn  -0.939629 0.342196 0.0 
vn  -0.988370 0.152065 0.0 
vn  -0.998575 0.053369 0.0 
vn  -0.989764 -0.142712 0.0 
vn  -0.970749 -0.240096 0.0 
vn  -0.911496 -0.411310 0.0 
vn  -0.873914 -0.486081 0.0 
vn  -0.790822 -0.612046 0.0 
vn  -0.747252 -0.664540 0.0 
vn  -0.650378 -0.759610 0.0 
vn  -0.597074 -0.802186 0.0 
vn  -0.482944 -0.875651 0.0 
vn  -0.422117 -0.906541 0.0 
vn  -0.295466 -0.955353 0.0 
vn  -0.229642 -0.973275 0.0 
vn  -0.095728 -0.995408 0.0 
vn  -0.027637 -0.999618 0.0 
vn  0.107984 -0.994153 0.0 
vn  0.175514 -0.984477 0.0 
vn  0.307214 -0.951640 0.0 
vn  0.371383 -0.928480 0.0 
vn  0.493695 -0.869635 0.0 
vn  0.551838 -0.833951 0.0 
vn  0.659687 -0.751540 0.0 
vn  0.709393 -0.704813 0.0 
vn  0.798303 -0.602256 0.0 
vn  0.837507 -0.546426 0.0 
vn  0.903789 -0.427979 0.0 
vn  0.930865 -0.365362 0.0 
vn  0.971767 -0.235940 0.0 
vn  0.985593 -0.169136 0.0 
vn  0.999418 -0.034110 0.0 
vn  0.999418 0.034110 0.0 
vn  0.985593 0.169136 0.0 
vn  0.971767 0.235941 0.0 
vn  0.930865 0.365362 0.0 
vn  0.903789 0.427979 0.0 
vn  0.837507 0.546426 0.0 
vn  0.798303 0.602256 0.0 
vn  0.709393 0.704814 0.0 
vn  0.659687 0.751540 0.0 
vn  0.551838 0.833951 0.0 
vn  0.493695 0.869635 0.0 
vn  0.371383 0.928480 0.0 
vn  0.307214 0.951641 0.0 
vn  0.175514 0.984477 0.0 
vn  0.107984 0.994153 0.0 
vn  -0.027637 0.999618 0.0 
vn  -0.095728 0.995408 0.0 
vn  -0.229643 0.973275 0.0 
vn  -0.295467 0.955353 0.0 
vn  -0.422117 0.906541 0.0 
vn  -0.482944 0.875651 0.0 
vn  -0.597074 0.802186 0.0 
vn  -0.650378 0.759610 0.0 
vn  -0.747252 0.664540 0.0 
vn  -0.790822 0.612046 0.0 
vn  0.0 0.0 1.0 
# 106 normals

usemtl AdeptWorkEnvelope

o i4_650_work_envelope___210mm_quill
g i4_650_work_envelope___210mm_quill

s off
f 1//1 2//1 3//1
f 4//1 5//1 6//1
f 6//1 5//1 7//1
f 6//1 7//1 8//1
f 1//1 3//1 9//1
f 10//1 11//1 12//1
f 13//1 14//1 15//1
f 15//1 14//1 16//1
f 15//1 16//1 17//1
f 17//1 16//1 18//1
f 17//1 18//1 19//1
f 19//1 18//1 20//1
f 19//1 20//1 10//1
f 10//1 20//1 21//1
f 10//1 21//1 11//1
f 22//1 23//1 24//1
f 24//1 23//1 25//1
f 24//1 25//1 13//1
f 13//1 25//1 26//1
f 13//1 26//1 14//1
f 27//1 28//1 4//1
f 4//1 28//1 29//1
f 4//1 29//1 5//1
f 30//1 31//1 32//1
f 32//1 31//1 33//1
f 32//1 33//1 34//1
f 34//1 33//1 35//1
f 34//1 35//1 27//1
f 27//1 35//1 36//1
f 27//1 36//1 28//1
f 12//1 37//1 10//1
f 10//1 37//1 38//1
f 10//1 38//1 39//1
f 39//1 38//1 40//1
f 39//1 40//1 3//1
f 3//1 40//1 41//1
f 3//1 41//1 9//1
f 42//1 43//1 22//1
f 22//1 43//1 44//1
f 22//1 44//1 23//1
f 7//1 45//1 8//1
f 8//1 45//1 46//1
f 8//1 46//1 47//1
f 47//1 46//1 48//1
f 47//1 48//1 42//1
f 42//1 48//1 49//1
f 42//1 49//1 43//1
f 2//1 50//1 3//1
f 3//1 50//1 51//1
f 3//1 51//1 52//1
f 52//1 51//1 30//1
f 52//1 30//1 53//1
f 53//1 30//1 32//1
f 54//2 19//3 55//4
f 55//4 19//3 10//4
f 39//5 56//5 10//5
f 10//5 56//5 55//5
f 3//6 57//6 39//6
f 39//6 57//6 56//6
f 52//7 58//8 3//9
f 3//9 58//8 57//9
f 58//8 52//7 59//10
f 59//10 52//7 53//11
f 59//10 53//11 60//12
f 60//12 53//11 32//13
f 60//12 32//13 61//14
f 61//14 32//13 34//15
f 61//14 34//15 62//16
f 62//16 34//15 27//17
f 62//16 27//17 63//18
f 63//18 27//17 4//19
f 63//18 4//19 64//20
f 64//20 4//19 6//21
f 64//20 6//21 65//22
f 65//22 6//21 8//23
f 65//22 8//23 66//24
f 66//24 8//23 47//25
f 66//24 47//25 67//26
f 67//26 47//25 42//27
f 67//26 42//27 68//28
f 68//28 42//27 22//29
f 68//28 22//29 69//30
f 69//30 22//29 24//31
f 69//30 24//31 70//32
f 70//32 24//31 13//33
f 70//32 13//33 71//34
f 71//34 13//33 15//35
f 71//34 15//35 72//36
f 72//36 15//35 17//37
f 72//36 17//37 54//2
f 54//2 17//37 19//3
f 73//38 2//39 1//40
f 73//38 1//40 74//41
f 74//41 1//40 9//42
f 74//41 9//42 75//43
f 75//43 9//42 41//44
f 75//43 41//44 76//45
f 76//45 41//44 40//46
f 76//45 40//46 77//46
f 77//47 40//47 38//48
f 77//47 38//48 78//49
f 78//49 38//48 37//50
f 78//49 37//50 79//51
f 79//51 37//50 12//52
f 79//51 12//52 80//53
f 80//53 12//52 11//54
f 80//53 11//54 81//55
f 81//55 11//54 21//56
f 81//55 21//56 82//57
f 82//57 21//56 20//58
f 82//57 20//58 83//59
f 83//59 20//58 18//60
f 83//59 18//60 84//61
f 84//61 18//60 16//62
f 84//61 16//62 85//63
f 85//63 16//62 14//64
f 85//63 14//64 86//65
f 86//65 14//64 26//66
f 86//65 26//66 87//67
f 87//67 26//66 25//68
f 87//67 25//68 88//69
f 88//69 25//68 23//70
f 88//69 23//70 89//71
f 89//71 23//70 44//72
f 89//71 44//72 90//73
f 90//73 44//72 43//74
f 90//73 43//74 91//75
f 91//75 43//74 49//76
f 91//75 49//76 92//77
f 92//77 49//76 48//78
f 92//77 48//78 93//79
f 93//79 48//78 46//80
f 93//79 46//80 94//81
f 94//81 46//80 45//82
f 94//81 45//82 95//83
f 95//83 45//82 7//84
f 95//83 7//84 96//85
f 96//85 7//84 5//86
f 96//85 5//86 97//87
f 97//87 5//86 29//88
f 97//87 29//88 98//89
f 98//89 29//88 28//90
f 98//89 28//90 99//91
f 99//91 28//90 36//92
f 99//91 36//92 100//93
f 100//93 36//92 35//94
f 100//93 35//94 101//95
f 101//95 35//94 33//96
f 101//95 33//96 102//97
f 102//97 33//96 31//98
f 102//97 31//98 103//99
f 103//99 31//98 30//100
f 103//99 30//100 104//101
f 104//101 30//100 51//102
f 104//101 51//102 105//103
f 105//103 51//102 50//104
f 105//103 50//104 106//105
f 106//105 50//104 2//39
f 106//105 2//39 73//38
f 80//106 81//106 55//106
f 80//106 55//106 79//106
f 63//106 99//106 62//106
f 62//106 99//106 100//106
f 62//106 100//106 61//106
f 57//106 73//106 74//106
f 100//106 101//106 61//106
f 61//106 101//106 102//106
f 61//106 102//106 60//106
f 60//106 102//106 103//106
f 60//106 103//106 59//106
f 59//106 103//106 104//106
f 59//106 104//106 58//106
f 58//106 104//106 105//106
f 58//106 105//106 57//106
f 57//106 105//106 106//106
f 57//106 106//106 73//106
f 64//106 97//106 63//106
f 63//106 97//106 98//106
f 63//106 98//106 99//106
f 66//106 94//106 65//106
f 65//106 94//106 95//106
f 65//106 95//106 64//106
f 64//106 95//106 96//106
f 64//106 96//106 97//106
f 81//106 82//106 55//106
f 55//106 82//106 83//106
f 55//106 83//106 54//106
f 54//106 83//106 84//106
f 54//106 84//106 72//106
f 72//106 84//106 71//106
f 74//106 75//106 57//106
f 57//106 75//106 76//106
f 57//106 76//106 56//106
f 56//106 76//106 77//106
f 56//106 77//106 55//106
f 55//106 77//106 78//106
f 55//106 78//106 79//106
f 68//106 91//106 67//106
f 67//106 91//106 92//106
f 67//106 92//106 66//106
f 66//106 92//106 93//106
f 66//106 93//106 94//106
f 69//106 89//106 68//106
f 68//106 89//106 90//106
f 68//106 90//106 91//106
f 84//106 85//106 71//106
f 71//106 85//106 86//106
f 71//106 86//106 70//106
f 70//106 86//106 87//106
f 70//106 87//106 69//106
f 69//106 87//106 88//106
f 69//106 88//106 89//106
# 212 polygons
