#
# Wavefront OBJ file: D:\Source\ace4\Libraries\CAD\Robots\i4 650\i4 650 work envelope - 410mm quill.obj
#
# Converted by the PolyTrans geometry converter from Okino Computer Graphics, Inc.
# Date/time of export: 07/26/2021 13:56:09
#
# Bounding box of geometry = (-604.647,-649.857,-8.49113e-005) to (646.344,649.857,418.5).

mtllib i4 650 work envelope - 410mm quill.mtl

# Coordinates for object 'i4 650 work envelope - 410mm quill'
v  -130.386017 203.107910 8.500020 
v  -189.085510 150.000000 8.500023 
v  -233.071091 150.000000 8.500027 
v  -601.008301 228.752945 8.500063 
v  -573.915955 305.156525 8.500064 
v  -233.071091 -150.000000 8.500013 
v  -189.085510 -150.000000 8.500010 
v  -397.313019 -514.434021 8.500012 
v  -130.386017 -203.107910 8.500003 
v  -280.036987 -586.582703 8.499999 
v  -57.661373 -234.368301 8.499995 
v  212.479523 114.480499 8.499987 
v  617.339966 203.448730 8.499955 
v  238.089920 39.579300 8.499981 
v  646.343689 68.846031 8.499947 
v  238.089920 -39.579300 8.499977 
v  -604.647156 147.769852 8.500059 
v  -496.760193 -419.200806 8.500025 
v  -573.915955 -305.156525 8.500037 
v  -601.008301 -228.752945 8.500043 
v  21.265665 -240.418594 8.499988 
v  -13.612572 -649.857483 8.499972 
v  -150.194672 -632.409363 8.499986 
v  164.013535 -177.067490 8.499978 
v  375.422272 -530.620544 8.499944 
v  97.905243 -220.608032 8.499982 
v  255.227798 -597.794861 8.499951 
v  123.580368 -638.144104 8.499961 
v  -604.647156 -147.769852 8.500047 
v  -584.516418 -69.244362 8.500048 
v  -383.069672 0.0 8.500033 
v  -542.365234 0.0 8.500048 
v  -584.516418 69.244362 8.500054 
v  646.343689 -68.846031 8.499941 
v  617.339966 -203.448730 8.499937 
v  212.479523 -114.480499 8.499976 
v  560.633911 -328.921936 8.499937 
v  478.770142 -439.635254 8.499939 
v  97.905243 220.608032 8.500001 
v  375.422272 530.620544 8.499990 
v  164.013535 177.067490 8.499993 
v  478.770142 439.635254 8.499977 
v  560.633911 328.921936 8.499966 
v  -57.661373 234.368301 8.500015 
v  -13.612572 649.857483 8.500030 
v  21.265665 240.418594 8.500009 
v  123.580368 638.144104 8.500017 
v  255.227798 597.794861 8.500004 
v  -496.760193 419.200806 8.500062 
v  -397.313019 514.434021 8.500057 
v  -280.036987 586.582703 8.500051 
v  -150.194672 632.409363 8.500041 
v  -189.085480 -150.000015 418.500000 
v  -233.071060 -150.000015 418.500000 
v  -383.069641 -0.000018 418.500031 
v  -233.071060 149.999985 418.500031 
v  -189.085480 149.999985 418.500031 
v  -130.385986 203.107895 418.500031 
v  -57.661335 234.368286 418.500031 
v  21.265701 240.418579 418.500000 
v  97.905281 220.608017 418.500000 
v  164.013565 177.067474 418.500000 
v  212.479553 114.480484 418.500000 
v  238.089951 39.579281 418.499969 
v  238.089951 -39.579319 418.499969 
v  212.479553 -114.480515 418.499969 
v  164.013565 -177.067505 418.499969 
v  97.905281 -220.608047 418.499969 
v  21.265701 -240.418610 418.500000 
v  -57.661335 -234.368317 418.500000 
v  -130.385986 -203.107925 418.500000 
v  -573.915894 305.156494 418.500061 
v  -601.008240 228.752930 418.500061 
v  -604.647095 147.769836 418.500061 
v  -584.516357 69.244347 418.500061 
v  -542.365173 -0.000018 418.500061 
v  -584.516357 -69.244377 418.500061 
v  -604.647095 -147.769867 418.500061 
v  -601.008240 -228.752960 418.500031 
v  -573.915894 -305.156555 418.500031 
v  -496.760162 -419.200836 418.500031 
v  -397.312988 -514.434021 418.500000 
v  -280.036957 -586.582703 418.500000 
v  -150.194641 -632.409363 418.500000 
v  -13.612536 -649.857483 418.499969 
v  123.580406 -638.144104 418.499969 
v  255.227829 -597.794861 418.499939 
v  375.422302 -530.620544 418.499939 
v  478.770172 -439.635284 418.499939 
v  560.633972 -328.921967 418.499939 
v  617.340027 -203.448746 418.499939 
v  646.343750 -68.846046 418.499939 
v  646.343750 68.846016 418.499939 
v  617.340027 203.448715 418.499969 
v  560.633972 328.921906 418.499969 
v  478.770172 439.635223 418.499969 
v  375.422302 530.620544 418.500000 
v  255.227829 597.794861 418.500000 
v  123.580406 638.144104 418.500031 
v  -13.612536 649.857483 418.500031 
v  -150.194641 632.409363 418.500031 
v  -280.036957 586.582703 418.500061 
v  -397.312988 514.434021 418.500061 
v  -496.760162 419.200775 418.500061 
v  0.0 0.0 0.0 
# 105 vertices

# 0 texture vertices

vn  0.0 0.0 -1.0 
vn  0.475408 0.879766 0.0 
vn  0.237704 0.971338 0.0 
vn  0.0 1.0 0.0 
vn  0.707110 0.707103 0.0 
vn  0.707110 -0.707103 0.0 
vn  0.475408 -0.879766 0.0 
vn  0.237704 -0.971338 0.0 
vn  0.0 -1.0 0.0 
vn  0.585952 -0.810346 0.0 
vn  0.492833 -0.870124 0.0 
vn  0.292264 -0.956338 0.0 
vn  0.184813 -0.982774 0.0 
vn  -0.032861 -0.999460 0.0 
vn  -0.143086 -0.989710 0.0 
vn  -0.354452 -0.935074 0.0 
vn  -0.455594 -0.890188 0.0 
vn  -0.637916 -0.770106 0.0 
vn  -0.719096 -0.694911 0.0 
vn  -0.852761 -0.522301 0.0 
vn  -0.905247 -0.424886 0.0 
vn  -0.975879 -0.218314 0.0 
vn  -0.994025 -0.109157 0.0 
vn  -0.994025 0.109157 0.0 
vn  -0.975879 0.218314 0.0 
vn  -0.905247 0.424886 0.0 
vn  -0.852761 0.522301 0.0 
vn  -0.719096 0.694911 0.0 
vn  -0.637916 0.770106 0.0 
vn  -0.455594 0.890188 0.0 
vn  -0.354452 0.935074 0.0 
vn  -0.143086 0.989710 0.0 
vn  -0.032862 0.999460 0.0 
vn  0.184813 0.982774 0.0 
vn  0.292264 0.956338 0.0 
vn  0.492833 0.870124 0.0 
vn  0.585952 0.810346 0.0 
vn  -0.910939 0.412540 0.0 
vn  -0.872583 0.488465 0.0 
vn  -0.970749 0.240096 0.0 
vn  -0.989764 0.142712 0.0 
vn  -0.998575 -0.053369 0.0 
vn  -0.988370 -0.152065 0.0 
vn  -0.939629 -0.342196 0.0 
vn  -0.901091 -0.433629 0.0 
vn  -0.854185 -0.519969 0.0 
vn  -0.854185 0.519969 0.0 
vn  -0.901091 0.433629 0.0 
vn  -0.939629 0.342196 0.0 
vn  -0.988370 0.152065 0.0 
vn  -0.998575 0.053369 0.0 
vn  -0.989764 -0.142712 0.0 
vn  -0.970749 -0.240096 0.0 
vn  -0.910939 -0.412540 0.0 
vn  -0.872583 -0.488465 0.0 
vn  -0.786649 -0.617400 0.0 
vn  -0.740881 -0.671636 0.0 
vn  -0.638948 -0.769250 0.0 
vn  -0.582783 -0.812628 0.0 
vn  -0.462576 -0.886580 0.0 
vn  -0.398534 -0.917154 0.0 
vn  -0.265446 -0.964126 0.0 
vn  -0.196401 -0.980524 0.0 
vn  -0.056404 -0.998408 0.0 
vn  0.014546 -0.999894 0.0 
vn  0.155168 -0.987888 0.0 
vn  0.224840 -0.974396 0.0 
vn  0.359778 -0.933038 0.0 
vn  0.425044 -0.905173 0.0 
vn  0.548243 -0.836319 0.0 
vn  0.606175 -0.795331 0.0 
vn  0.712106 -0.702072 0.0 
vn  0.760105 -0.649800 0.0 
vn  0.844015 -0.536320 0.0 
vn  0.879926 -0.475111 0.0 
vn  0.938050 -0.346501 0.0 
vn  0.960262 -0.279101 0.0 
vn  0.989991 -0.141133 0.0 
vn  0.997507 -0.070567 0.0 
vn  0.997507 0.070567 0.0 
vn  0.989991 0.141133 0.0 
vn  0.960262 0.279101 0.0 
vn  0.938050 0.346501 0.0 
vn  0.879926 0.475111 0.0 
vn  0.844015 0.536320 0.0 
vn  0.760105 0.649800 0.0 
vn  0.712106 0.702072 0.0 
vn  0.606175 0.795331 0.0 
vn  0.548243 0.836319 0.0 
vn  0.425044 0.905173 0.0 
vn  0.359778 0.933038 0.0 
vn  0.224840 0.974396 0.0 
vn  0.155168 0.987888 0.0 
vn  0.014546 0.999894 0.0 
vn  -0.056404 0.998408 0.0 
vn  -0.196401 0.980524 0.0 
vn  -0.265446 0.964126 0.0 
vn  -0.398534 0.917154 0.0 
vn  -0.462576 0.886580 0.0 
vn  -0.582783 0.812628 0.0 
vn  -0.638948 0.769250 0.0 
vn  -0.740881 0.671636 0.0 
vn  -0.786649 0.617401 0.0 
vn  0.0 0.0 1.0 
# 104 normals

usemtl AdeptWorkEnvelope

o i4_650_work_envelope___410mm_quill
g i4_650_work_envelope___410mm_quill

s off
f 1//1 2//1 3//1
f 4//1 5//1 3//1
f 6//1 7//1 8//1
f 8//1 7//1 9//1
f 8//1 9//1 10//1
f 10//1 9//1 11//1
f 12//1 13//1 14//1
f 14//1 13//1 15//1
f 14//1 15//1 16//1
f 4//1 3//1 17//1
f 8//1 18//1 6//1
f 6//1 18//1 19//1
f 6//1 19//1 20//1
f 21//1 22//1 11//1
f 11//1 22//1 23//1
f 11//1 23//1 10//1
f 24//1 25//1 26//1
f 26//1 25//1 27//1
f 26//1 27//1 21//1
f 21//1 27//1 28//1
f 21//1 28//1 22//1
f 20//1 29//1 6//1
f 6//1 29//1 30//1
f 6//1 30//1 31//1
f 31//1 30//1 32//1
f 31//1 32//1 3//1
f 3//1 32//1 33//1
f 3//1 33//1 17//1
f 15//1 34//1 16//1
f 16//1 34//1 35//1
f 16//1 35//1 36//1
f 36//1 35//1 37//1
f 36//1 37//1 24//1
f 24//1 37//1 38//1
f 24//1 38//1 25//1
f 39//1 40//1 41//1
f 41//1 40//1 42//1
f 41//1 42//1 12//1
f 12//1 42//1 43//1
f 12//1 43//1 13//1
f 44//1 45//1 46//1
f 46//1 45//1 47//1
f 46//1 47//1 39//1
f 39//1 47//1 48//1
f 39//1 48//1 40//1
f 5//1 49//1 3//1
f 3//1 49//1 50//1
f 3//1 50//1 1//1
f 1//1 50//1 51//1
f 1//1 51//1 44//1
f 44//1 51//1 52//1
f 44//1 52//1 45//1
f 53//2 7//3 54//4
f 54//4 7//3 6//4
f 31//5 55//5 6//5
f 6//5 55//5 54//5
f 3//6 56//6 31//6
f 31//6 56//6 55//6
f 2//7 57//8 3//9
f 3//9 57//8 56//9
f 57//8 2//7 58//10
f 58//10 2//7 1//11
f 58//10 1//11 59//12
f 59//12 1//11 44//13
f 59//12 44//13 60//14
f 60//14 44//13 46//15
f 60//14 46//15 61//16
f 61//16 46//15 39//17
f 61//16 39//17 62//18
f 62//18 39//17 41//19
f 62//18 41//19 63//20
f 63//20 41//19 12//21
f 63//20 12//21 64//22
f 64//22 12//21 14//23
f 64//22 14//23 65//24
f 65//24 14//23 16//25
f 65//24 16//25 66//26
f 66//26 16//25 36//27
f 66//26 36//27 67//28
f 67//28 36//27 24//29
f 67//28 24//29 68//30
f 68//30 24//29 26//31
f 68//30 26//31 69//32
f 69//32 26//31 21//33
f 69//32 21//33 70//34
f 70//34 21//33 11//35
f 70//34 11//35 71//36
f 71//36 11//35 9//37
f 71//36 9//37 53//2
f 53//2 9//37 7//3
f 72//38 5//39 4//40
f 72//38 4//40 73//41
f 73//41 4//40 17//42
f 73//41 17//42 74//43
f 74//43 17//42 33//44
f 74//43 33//44 75//45
f 75//45 33//44 32//46
f 75//45 32//46 76//46
f 76//47 32//47 30//48
f 76//47 30//48 77//49
f 77//49 30//48 29//50
f 77//49 29//50 78//51
f 78//51 29//50 20//52
f 78//51 20//52 79//53
f 79//53 20//52 19//54
f 79//53 19//54 80//55
f 80//55 19//54 18//56
f 80//55 18//56 81//57
f 81//57 18//56 8//58
f 81//57 8//58 82//59
f 82//59 8//58 10//60
f 82//59 10//60 83//61
f 83//61 10//60 23//62
f 83//61 23//62 84//63
f 84//63 23//62 22//64
f 84//63 22//64 85//65
f 85//65 22//64 28//66
f 85//65 28//66 86//67
f 86//67 28//66 27//68
f 86//67 27//68 87//69
f 87//69 27//68 25//70
f 87//69 25//70 88//71
f 88//71 25//70 38//72
f 88//71 38//72 89//73
f 89//73 38//72 37//74
f 89//73 37//74 90//75
f 90//75 37//74 35//76
f 90//75 35//76 91//77
f 91//77 35//76 34//78
f 91//77 34//78 92//79
f 92//79 34//78 15//80
f 92//79 15//80 93//81
f 93//81 15//80 13//82
f 93//81 13//82 94//83
f 94//83 13//82 43//84
f 94//83 43//84 95//85
f 95//85 43//84 42//86
f 95//85 42//86 96//87
f 96//87 42//86 40//88
f 96//87 40//88 97//89
f 97//89 40//88 48//90
f 97//89 48//90 98//91
f 98//91 48//90 47//92
f 98//91 47//92 99//93
f 99//93 47//92 45//94
f 99//93 45//94 100//95
f 100//95 45//94 52//96
f 100//95 52//96 101//97
f 101//97 52//96 51//98
f 101//97 51//98 102//99
f 102//99 51//98 50//100
f 102//99 50//100 103//101
f 103//101 50//100 49//102
f 103//101 49//102 104//103
f 104//103 49//102 5//39
f 104//103 5//39 72//38
f 71//104 53//104 54//104
f 79//104 80//104 54//104
f 79//104 54//104 78//104
f 56//104 57//104 103//104
f 103//104 57//104 58//104
f 103//104 58//104 102//104
f 102//104 58//104 59//104
f 103//104 104//104 56//104
f 56//104 104//104 72//104
f 56//104 72//104 73//104
f 60//104 100//104 59//104
f 59//104 100//104 101//104
f 59//104 101//104 102//104
f 62//104 97//104 61//104
f 61//104 97//104 98//104
f 61//104 98//104 60//104
f 60//104 98//104 99//104
f 60//104 99//104 100//104
f 64//104 94//104 63//104
f 63//104 94//104 95//104
f 63//104 95//104 62//104
f 62//104 95//104 96//104
f 62//104 96//104 97//104
f 66//104 91//104 65//104
f 65//104 91//104 92//104
f 65//104 92//104 64//104
f 64//104 92//104 93//104
f 64//104 93//104 94//104
f 73//104 74//104 56//104
f 56//104 74//104 75//104
f 56//104 75//104 55//104
f 55//104 75//104 76//104
f 55//104 76//104 54//104
f 54//104 76//104 77//104
f 54//104 77//104 78//104
f 80//104 81//104 54//104
f 54//104 81//104 82//104
f 54//104 82//104 71//104
f 71//104 82//104 83//104
f 71//104 83//104 70//104
f 68//104 88//104 67//104
f 67//104 88//104 89//104
f 67//104 89//104 66//104
f 66//104 89//104 90//104
f 66//104 90//104 91//104
f 83//104 84//104 70//104
f 70//104 84//104 85//104
f 70//104 85//104 69//104
f 69//104 85//104 86//104
f 69//104 86//104 68//104
f 68//104 86//104 87//104
f 68//104 87//104 88//104
# 208 polygons
